<mxfile host="Electron" modified="2024-08-22T09:20:04.185Z" agent="Mozilla/5.0 (X11; Linux x86_64) AppleWebKit/537.36 (KHTML, like Gecko) draw.io/22.1.18 Chrome/120.0.6099.199 Electron/28.1.2 Safari/537.36" etag="eoOm5ziCoVcX7-Or2LTQ" version="22.1.18" type="device">
  <diagram name="Page-1" id="tVLz-H8TcDohW4CUsqgu">
    <mxGraphModel dx="1368" dy="963" grid="1" gridSize="10" guides="1" tooltips="1" connect="1" arrows="1" fold="1" page="1" pageScale="1" pageWidth="850" pageHeight="1100" math="0" shadow="0">
      <root>
        <mxCell id="0" />
        <mxCell id="1" parent="0" />
        <mxCell id="M-7buxWzd58EejQ7mZZN-48" style="edgeStyle=none;html=1;entryX=0;entryY=0.5;entryDx=0;entryDy=0;" edge="1" parent="1" source="M-7buxWzd58EejQ7mZZN-49" target="M-7buxWzd58EejQ7mZZN-52">
          <mxGeometry relative="1" as="geometry" />
        </mxCell>
        <mxCell id="M-7buxWzd58EejQ7mZZN-49" value="image.yaml" style="shape=note;whiteSpace=wrap;html=1;backgroundOutline=1;darkOpacity=0.05;align=left;" vertex="1" parent="1">
          <mxGeometry x="100" y="210" width="100" height="40" as="geometry" />
        </mxCell>
        <mxCell id="M-7buxWzd58EejQ7mZZN-50" value="image.raw" style="shape=cube;whiteSpace=wrap;html=1;boundedLbl=1;backgroundOutline=1;darkOpacity=0.05;darkOpacity2=0.1;" vertex="1" parent="1">
          <mxGeometry x="340" y="205" width="100" height="50" as="geometry" />
        </mxCell>
        <mxCell id="M-7buxWzd58EejQ7mZZN-51" style="edgeStyle=none;html=1;entryX=0.018;entryY=0.457;entryDx=0;entryDy=0;entryPerimeter=0;" edge="1" parent="1" source="M-7buxWzd58EejQ7mZZN-52" target="M-7buxWzd58EejQ7mZZN-50">
          <mxGeometry relative="1" as="geometry" />
        </mxCell>
        <mxCell id="M-7buxWzd58EejQ7mZZN-52" value="embdgen" style="shape=step;perimeter=stepPerimeter;whiteSpace=wrap;html=1;fixedSize=1;fillColor=#d5e8d4;strokeColor=#82b366;" vertex="1" parent="1">
          <mxGeometry x="220" y="210" width="100" height="40" as="geometry" />
        </mxCell>
      </root>
    </mxGraphModel>
  </diagram>
</mxfile>
